# xmcd
#
# Track frame offsets:
# 150
# 12158
# 22908
# 35923
# 49723
# 60647
# 68307
# 80701
# 88352
# 98745
# 111536
# 122596
# 132057
# 142109
# 150751
# 163578
# 173540
# 184631
#
# Disc length: 2605 seconds
#
#
# Revision: 0
# Processed by: cddbd v1.5.1PL0 Copyright (c) Steve Scherf et al.
# Submitted via: FreeRIP 2.70 
#
DISCID=e30a2b12
DTITLE=Jim Reeves - He'll Have To Go
DYEAR=1900
DGENRE=
TTITLE0=Am I Losing You
TTITLE1=He'll Have To Go
TTITLE2=Have I Told You Lately That I Love You
TTITLE3=How's The World Treating You
TTITLE4=I Love You More
TTITLE5=Till The End Of The World
TTITLE6=I've Lived A Lot In My Time
TTITLE7=Oklahoma Hills
TTITLE8=I'm Gettin' Better
TTITLE9=Bimbo
TTITLE10=Anna Marie
TTITLE11=Billy Bayou
TTITLE12=Blue Boy
TTITLE13=Waiting For A Train
TTITLE14=When God Dips His Love In My Heart
TTITLE15=Just Call Me Lonesome
TTITLE16=If Heartaches Are The Fashion
TTITLE17=Your Old Love Letters
EXTD=
EXTT0=
EXTT1=
EXTT2=
EXTT3=
EXTT4=
EXTT5=
EXTT6=
EXTT7=
EXTT8=
EXTT9=
EXTT10=
EXTT11=
EXTT12=
EXTT13=
EXTT14=
EXTT15=
EXTT16=
EXTT17=
PLAYORDER=
